<mxfile host="app.diagrams.net" agent="Mozilla/5.0 (X11; Ubuntu; Linux x86_64; rv:144.0) Gecko/20100101 Firefox/144.0" version="28.2.8">
  <diagram name="Page-1" id="bjVDkqN4jfYfFJxV3ved">
    <mxGraphModel dx="1600" dy="935" grid="1" gridSize="10" guides="1" tooltips="1" connect="1" arrows="1" fold="1" page="1" pageScale="1" pageWidth="850" pageHeight="1100" math="0" shadow="0">
      <root>
        <mxCell id="0" />
        <mxCell id="1" parent="0" />
        <mxCell id="tC6INBS62KU_Nt3FtVll-2" value="" style="rounded=0;whiteSpace=wrap;html=1;fillColor=light-dark(#FFFFFF,#FFFFFF);strokeColor=light-dark(#000000,#000000);strokeWidth=8;" parent="1" vertex="1">
          <mxGeometry x="140" y="40" width="870" height="560" as="geometry" />
        </mxCell>
        <mxCell id="tC6INBS62KU_Nt3FtVll-1" value="&lt;div style=&quot;color: rgb(204, 204, 204); font-size: 14px; line-height: 19px; white-space: pre;&quot;&gt;&lt;div&gt;&lt;b&gt;&lt;font style=&quot;font-size: 30px; color: light-dark(rgb(0, 0, 0), rgb(0, 0, 0));&quot; face=&quot;Helvetica&quot;&gt;ros2 launch pallet_truck_navigation nav2.launch.py&lt;/font&gt;&lt;/b&gt;&lt;/div&gt;&lt;/div&gt;" style="text;html=1;align=center;verticalAlign=middle;whiteSpace=wrap;rounded=0;fontSize=16;" parent="1" vertex="1">
          <mxGeometry x="155" y="80" width="760" height="30" as="geometry" />
        </mxCell>
        <mxCell id="tC6INBS62KU_Nt3FtVll-81" value="" style="rounded=1;whiteSpace=wrap;html=1;fillColor=none;strokeColor=light-dark(#000000,#000000);strokeWidth=3;" parent="1" vertex="1">
          <mxGeometry x="311" y="190" width="260" height="60" as="geometry" />
        </mxCell>
        <mxCell id="tC6INBS62KU_Nt3FtVll-82" value="&lt;div align=&quot;center&quot;&gt;&lt;span style=&quot;color: light-dark(rgb(0, 0, 0), rgb(0, 0, 0));&quot;&gt;&quot;pallet_truck_navigation&quot;&lt;/span&gt;&lt;/div&gt;&lt;div align=&quot;center&quot;&gt;&lt;span style=&quot;color: light-dark(rgb(0, 0, 0), rgb(0, 0, 0));&quot;&gt;nav2.launch.py&lt;/span&gt;&lt;/div&gt;" style="text;strokeColor=none;fillColor=none;html=1;align=center;verticalAlign=middle;whiteSpace=wrap;rounded=0;fontSize=16;" parent="1" vertex="1">
          <mxGeometry x="378.25" y="200" width="120" height="30" as="geometry" />
        </mxCell>
        <mxCell id="tC6INBS62KU_Nt3FtVll-93" value="" style="rhombus;whiteSpace=wrap;html=1;fillColor=none;strokeColor=light-dark(#000000,#000000);strokeWidth=3;" parent="1" vertex="1">
          <mxGeometry x="747" y="408" width="230" height="80" as="geometry" />
        </mxCell>
        <mxCell id="tC6INBS62KU_Nt3FtVll-94" value="&lt;div&gt;&lt;span style=&quot;color: light-dark(rgb(0, 0, 0), rgb(0, 0, 0));&quot;&gt;&quot;tf2_ros&quot;&lt;/span&gt;&lt;/div&gt;&lt;div&gt;&lt;span style=&quot;color: light-dark(rgb(0, 0, 0), rgb(0, 0, 0));&quot;&gt;static_transform_publisher&lt;/span&gt;&lt;/div&gt;" style="text;strokeColor=none;fillColor=none;html=1;align=center;verticalAlign=middle;whiteSpace=wrap;rounded=0;fontSize=16;" parent="1" vertex="1">
          <mxGeometry x="801" y="422" width="120" height="30" as="geometry" />
        </mxCell>
        <mxCell id="tC6INBS62KU_Nt3FtVll-95" value="" style="rhombus;whiteSpace=wrap;html=1;fillColor=none;strokeColor=light-dark(#000000,#000000);strokeWidth=3;" parent="1" vertex="1">
          <mxGeometry x="737" y="492" width="250" height="93" as="geometry" />
        </mxCell>
        <mxCell id="tC6INBS62KU_Nt3FtVll-96" value="&lt;div&gt;&lt;span style=&quot;color: light-dark(rgb(0, 0, 0), rgb(0, 0, 0));&quot;&gt;&quot;pallet_truck_navigation&quot;&lt;/span&gt;&lt;/div&gt;&lt;div&gt;&lt;span style=&quot;color: light-dark(rgb(0, 0, 0), rgb(0, 0, 0));&quot;&gt;update_map_node&lt;/span&gt;&lt;/div&gt;" style="text;strokeColor=none;fillColor=none;html=1;align=center;verticalAlign=middle;whiteSpace=wrap;rounded=0;fontSize=16;" parent="1" vertex="1">
          <mxGeometry x="804" y="527" width="120" height="30" as="geometry" />
        </mxCell>
        <mxCell id="tC6INBS62KU_Nt3FtVll-98" value="" style="endArrow=classic;html=1;rounded=0;fontSize=12;startSize=8;endSize=8;curved=1;strokeColor=light-dark(#000000,#000000);entryX=0.5;entryY=0;entryDx=0;entryDy=0;exitX=1;exitY=0.25;exitDx=0;exitDy=0;strokeWidth=3;" parent="1" source="tKP7OsU-ehgEjlemJdrn-1" target="tC6INBS62KU_Nt3FtVll-93" edge="1">
          <mxGeometry width="50" height="50" relative="1" as="geometry">
            <mxPoint x="523" y="237" as="sourcePoint" />
            <mxPoint x="667" y="282" as="targetPoint" />
            <Array as="points">
              <mxPoint x="900" y="290" />
            </Array>
          </mxGeometry>
        </mxCell>
        <mxCell id="tC6INBS62KU_Nt3FtVll-99" value="" style="endArrow=classic;html=1;rounded=0;fontSize=12;startSize=8;endSize=8;curved=1;strokeColor=light-dark(#000000,#000000);entryX=0;entryY=0;entryDx=0;entryDy=0;exitX=1;exitY=0.75;exitDx=0;exitDy=0;strokeWidth=3;" parent="1" source="tKP7OsU-ehgEjlemJdrn-1" target="tC6INBS62KU_Nt3FtVll-95" edge="1">
          <mxGeometry width="50" height="50" relative="1" as="geometry">
            <mxPoint x="693" y="267" as="sourcePoint" />
            <mxPoint x="837" y="312" as="targetPoint" />
            <Array as="points">
              <mxPoint x="680" y="270" />
              <mxPoint x="810" y="360" />
              <mxPoint x="680" y="460" />
            </Array>
          </mxGeometry>
        </mxCell>
        <mxCell id="tC6INBS62KU_Nt3FtVll-100" value="" style="rhombus;whiteSpace=wrap;html=1;fillColor=none;strokeColor=light-dark(#000000,#000000);strokeWidth=3;" parent="1" vertex="1">
          <mxGeometry x="195.5" y="420" width="230" height="80" as="geometry" />
        </mxCell>
        <mxCell id="tC6INBS62KU_Nt3FtVll-101" value="&lt;div&gt;&lt;span style=&quot;color: light-dark(rgb(0, 0, 0), rgb(0, 0, 0));&quot;&gt;&quot;nav2_controller&quot;&lt;/span&gt;&lt;/div&gt;&lt;div&gt;&lt;span style=&quot;color: light-dark(rgb(0, 0, 0), rgb(0, 0, 0));&quot;&gt;controller_server&lt;/span&gt;&lt;/div&gt;" style="text;strokeColor=none;fillColor=none;html=1;align=center;verticalAlign=middle;whiteSpace=wrap;rounded=0;fontSize=16;" parent="1" vertex="1">
          <mxGeometry x="249.5" y="444" width="120" height="30" as="geometry" />
        </mxCell>
        <mxCell id="tC6INBS62KU_Nt3FtVll-102" value="" style="rhombus;whiteSpace=wrap;html=1;fillColor=none;strokeColor=light-dark(#000000,#000000);strokeWidth=3;" parent="1" vertex="1">
          <mxGeometry x="196.5" y="330" width="230" height="80" as="geometry" />
        </mxCell>
        <mxCell id="tC6INBS62KU_Nt3FtVll-103" value="&lt;div&gt;&lt;span style=&quot;color: light-dark(rgb(0, 0, 0), rgb(0, 0, 0));&quot;&gt;&quot;nav2_planner&quot;&lt;/span&gt;&lt;/div&gt;&lt;div&gt;&lt;span style=&quot;color: light-dark(rgb(0, 0, 0), rgb(0, 0, 0));&quot;&gt;planner_server&lt;/span&gt;&lt;/div&gt;" style="text;strokeColor=none;fillColor=none;html=1;align=center;verticalAlign=middle;whiteSpace=wrap;rounded=0;fontSize=16;" parent="1" vertex="1">
          <mxGeometry x="250.5" y="353" width="120" height="30" as="geometry" />
        </mxCell>
        <mxCell id="tC6INBS62KU_Nt3FtVll-104" value="" style="rhombus;whiteSpace=wrap;html=1;fillColor=none;strokeColor=light-dark(#000000,#000000);strokeWidth=3;" parent="1" vertex="1">
          <mxGeometry x="456.5" y="330" width="230" height="80" as="geometry" />
        </mxCell>
        <mxCell id="tC6INBS62KU_Nt3FtVll-105" value="&lt;div&gt;&lt;span style=&quot;color: light-dark(rgb(0, 0, 0), rgb(0, 0, 0));&quot;&gt;&quot;nav2_behavior&quot;&lt;/span&gt;&lt;/div&gt;&lt;div&gt;&lt;span style=&quot;color: light-dark(rgb(0, 0, 0), rgb(0, 0, 0));&quot;&gt;behavior_server&lt;/span&gt;&lt;/div&gt;" style="text;strokeColor=none;fillColor=none;html=1;align=center;verticalAlign=middle;whiteSpace=wrap;rounded=0;fontSize=16;" parent="1" vertex="1">
          <mxGeometry x="510.5" y="352" width="120" height="34" as="geometry" />
        </mxCell>
        <mxCell id="tC6INBS62KU_Nt3FtVll-106" value="" style="rhombus;whiteSpace=wrap;html=1;fillColor=none;strokeColor=light-dark(#000000,#000000);strokeWidth=3;" parent="1" vertex="1">
          <mxGeometry x="307" y="490" width="270" height="100" as="geometry" />
        </mxCell>
        <mxCell id="tC6INBS62KU_Nt3FtVll-107" value="&lt;div&gt;&lt;span style=&quot;color: light-dark(rgb(0, 0, 0), rgb(0, 0, 0));&quot;&gt;&quot;nav3_lifecycle_manager&quot;&lt;/span&gt;&lt;/div&gt;&lt;div&gt;&lt;span style=&quot;color: light-dark(rgb(0, 0, 0), rgb(0, 0, 0));&quot;&gt;lifecycle_manager&lt;/span&gt;&lt;/div&gt;" style="text;strokeColor=none;fillColor=none;html=1;align=center;verticalAlign=middle;whiteSpace=wrap;rounded=0;fontSize=16;" parent="1" vertex="1">
          <mxGeometry x="381" y="528" width="120" height="30" as="geometry" />
        </mxCell>
        <mxCell id="tC6INBS62KU_Nt3FtVll-108" value="" style="rhombus;whiteSpace=wrap;html=1;fillColor=none;strokeColor=light-dark(#000000,#000000);strokeWidth=3;" parent="1" vertex="1">
          <mxGeometry x="455.5" y="420" width="230" height="80" as="geometry" />
        </mxCell>
        <mxCell id="tC6INBS62KU_Nt3FtVll-109" value="&lt;div&gt;&lt;span style=&quot;color: light-dark(rgb(0, 0, 0), rgb(0, 0, 0));&quot;&gt;&quot;nav2_bt_navigator&quot;&lt;/span&gt;&lt;/div&gt;&lt;div&gt;&lt;span style=&quot;color: light-dark(rgb(0, 0, 0), rgb(0, 0, 0));&quot;&gt;bt_navigator&lt;/span&gt;&lt;/div&gt;" style="text;strokeColor=none;fillColor=none;html=1;align=center;verticalAlign=middle;whiteSpace=wrap;rounded=0;fontSize=16;" parent="1" vertex="1">
          <mxGeometry x="509.5" y="447" width="120" height="30" as="geometry" />
        </mxCell>
        <mxCell id="tC6INBS62KU_Nt3FtVll-110" value="" style="endArrow=classic;html=1;rounded=0;fontSize=12;startSize=8;endSize=8;curved=1;strokeColor=light-dark(#000000,#000000);entryX=0.5;entryY=0;entryDx=0;entryDy=0;exitX=0.75;exitY=1;exitDx=0;exitDy=0;strokeWidth=3;" parent="1" source="tKP7OsU-ehgEjlemJdrn-1" target="tC6INBS62KU_Nt3FtVll-104" edge="1">
          <mxGeometry width="50" height="50" relative="1" as="geometry">
            <mxPoint x="477" y="330" as="sourcePoint" />
            <mxPoint x="522" y="353" as="targetPoint" />
            <Array as="points">
              <mxPoint x="547" y="280" />
            </Array>
          </mxGeometry>
        </mxCell>
        <mxCell id="tC6INBS62KU_Nt3FtVll-111" value="" style="endArrow=classic;html=1;rounded=0;fontSize=12;startSize=8;endSize=8;curved=1;strokeColor=light-dark(#000000,#000000);entryX=0.5;entryY=0;entryDx=0;entryDy=0;strokeWidth=3;exitX=0.5;exitY=1;exitDx=0;exitDy=0;" parent="1" source="tKP7OsU-ehgEjlemJdrn-1" target="tC6INBS62KU_Nt3FtVll-106" edge="1">
          <mxGeometry width="50" height="50" relative="1" as="geometry">
            <mxPoint x="446" y="400.24" as="sourcePoint" />
            <mxPoint x="901" y="683" as="targetPoint" />
            <Array as="points" />
          </mxGeometry>
        </mxCell>
        <mxCell id="tC6INBS62KU_Nt3FtVll-112" value="" style="endArrow=classic;html=1;rounded=0;fontSize=12;startSize=8;endSize=8;curved=1;strokeColor=light-dark(#000000,#000000);entryX=0.5;entryY=0;entryDx=0;entryDy=0;exitX=0.25;exitY=1;exitDx=0;exitDy=0;strokeWidth=3;" parent="1" source="tKP7OsU-ehgEjlemJdrn-1" target="tC6INBS62KU_Nt3FtVll-102" edge="1">
          <mxGeometry width="50" height="50" relative="1" as="geometry">
            <mxPoint x="367" y="330" as="sourcePoint" />
            <mxPoint x="412" y="353" as="targetPoint" />
            <Array as="points">
              <mxPoint x="327" y="290" />
            </Array>
          </mxGeometry>
        </mxCell>
        <mxCell id="tC6INBS62KU_Nt3FtVll-113" value="" style="endArrow=classic;html=1;rounded=0;fontSize=12;startSize=8;endSize=8;curved=1;strokeColor=light-dark(#000000,#000000);entryX=1;entryY=0.5;entryDx=0;entryDy=0;exitX=0.945;exitY=1.013;exitDx=0;exitDy=0;strokeWidth=3;exitPerimeter=0;" parent="1" source="tKP7OsU-ehgEjlemJdrn-1" target="tC6INBS62KU_Nt3FtVll-108" edge="1">
          <mxGeometry width="50" height="50" relative="1" as="geometry">
            <mxPoint x="327" y="340" as="sourcePoint" />
            <mxPoint x="372" y="363" as="targetPoint" />
            <Array as="points">
              <mxPoint x="807" y="280" />
            </Array>
          </mxGeometry>
        </mxCell>
        <mxCell id="tC6INBS62KU_Nt3FtVll-114" value="" style="endArrow=classic;html=1;rounded=0;fontSize=12;startSize=8;endSize=8;curved=1;strokeColor=light-dark(#000000,#000000);entryX=0;entryY=0.5;entryDx=0;entryDy=0;exitX=0.041;exitY=1.017;exitDx=0;exitDy=0;strokeWidth=3;exitPerimeter=0;" parent="1" source="tKP7OsU-ehgEjlemJdrn-1" target="tC6INBS62KU_Nt3FtVll-100" edge="1">
          <mxGeometry width="50" height="50" relative="1" as="geometry">
            <mxPoint x="277" y="340" as="sourcePoint" />
            <mxPoint x="322" y="363" as="targetPoint" />
            <Array as="points">
              <mxPoint x="97" y="280" />
            </Array>
          </mxGeometry>
        </mxCell>
        <mxCell id="tKP7OsU-ehgEjlemJdrn-1" value="" style="rounded=1;whiteSpace=wrap;html=1;fillColor=none;strokeColor=light-dark(#000000,#000000);strokeWidth=3;" vertex="1" parent="1">
          <mxGeometry x="337" y="250" width="210" height="20" as="geometry" />
        </mxCell>
        <mxCell id="tKP7OsU-ehgEjlemJdrn-2" value="&lt;span style=&quot;color: light-dark(rgb(0, 0, 0), rgb(0, 0, 0));&quot;&gt;&lt;font style=&quot;font-size: 10px;&quot;&gt;for each robot&lt;/font&gt;&lt;/span&gt;" style="text;strokeColor=none;fillColor=none;html=1;align=center;verticalAlign=middle;whiteSpace=wrap;rounded=0;fontSize=16;" vertex="1" parent="1">
          <mxGeometry x="381" y="240" width="120" height="30" as="geometry" />
        </mxCell>
        <mxCell id="tKP7OsU-ehgEjlemJdrn-3" value="&lt;span style=&quot;color: light-dark(rgb(0, 0, 0), rgb(0, 0, 0));&quot;&gt;ROBOTS&lt;/span&gt;" style="text;strokeColor=none;fillColor=none;html=1;align=center;verticalAlign=middle;whiteSpace=wrap;rounded=0;fontSize=16;" vertex="1" parent="1">
          <mxGeometry x="381" y="130" width="120" height="30" as="geometry" />
        </mxCell>
        <mxCell id="tKP7OsU-ehgEjlemJdrn-4" value="" style="endArrow=classic;html=1;rounded=0;fontSize=12;startSize=8;endSize=8;curved=1;strokeColor=light-dark(#000000,#000000);entryX=0.5;entryY=0;entryDx=0;entryDy=0;exitX=0.5;exitY=1;exitDx=0;exitDy=0;strokeWidth=3;" edge="1" parent="1" source="tKP7OsU-ehgEjlemJdrn-3" target="tC6INBS62KU_Nt3FtVll-81">
          <mxGeometry width="50" height="50" relative="1" as="geometry">
            <mxPoint x="476" y="160" as="sourcePoint" />
            <mxPoint x="442" y="280" as="targetPoint" />
            <Array as="points" />
          </mxGeometry>
        </mxCell>
        <mxCell id="tKP7OsU-ehgEjlemJdrn-6" value="" style="endArrow=none;dashed=1;html=1;rounded=0;strokeColor=light-dark(#000000,#000000);entryX=1;entryY=1;entryDx=0;entryDy=0;exitX=0.5;exitY=0;exitDx=0;exitDy=0;" edge="1" parent="1" source="tC6INBS62KU_Nt3FtVll-106" target="tC6INBS62KU_Nt3FtVll-102">
          <mxGeometry width="50" height="50" relative="1" as="geometry">
            <mxPoint x="427" y="350" as="sourcePoint" />
            <mxPoint x="477" y="300" as="targetPoint" />
            <Array as="points">
              <mxPoint x="427" y="430" />
            </Array>
          </mxGeometry>
        </mxCell>
        <mxCell id="tKP7OsU-ehgEjlemJdrn-7" value="" style="endArrow=none;dashed=1;html=1;rounded=0;strokeColor=light-dark(#000000,#000000);entryX=0;entryY=1;entryDx=0;entryDy=0;exitX=0.5;exitY=0;exitDx=0;exitDy=0;" edge="1" parent="1" source="tC6INBS62KU_Nt3FtVll-106" target="tC6INBS62KU_Nt3FtVll-104">
          <mxGeometry width="50" height="50" relative="1" as="geometry">
            <mxPoint x="437" y="490" as="sourcePoint" />
            <mxPoint x="457" y="420" as="targetPoint" />
            <Array as="points">
              <mxPoint x="457" y="430" />
            </Array>
          </mxGeometry>
        </mxCell>
        <mxCell id="tKP7OsU-ehgEjlemJdrn-8" value="" style="endArrow=none;dashed=1;html=1;rounded=0;strokeColor=light-dark(#000000,#000000);entryX=0.5;entryY=0;entryDx=0;entryDy=0;exitX=1;exitY=1;exitDx=0;exitDy=0;" edge="1" parent="1" source="tC6INBS62KU_Nt3FtVll-100" target="tC6INBS62KU_Nt3FtVll-106">
          <mxGeometry width="50" height="50" relative="1" as="geometry">
            <mxPoint x="470" y="570" as="sourcePoint" />
            <mxPoint x="397" y="470" as="targetPoint" />
            <Array as="points" />
          </mxGeometry>
        </mxCell>
        <mxCell id="tKP7OsU-ehgEjlemJdrn-9" value="" style="endArrow=none;dashed=1;html=1;rounded=0;strokeColor=light-dark(#000000,#000000);entryX=0;entryY=1;entryDx=0;entryDy=0;exitX=0.5;exitY=0;exitDx=0;exitDy=0;" edge="1" parent="1" source="tC6INBS62KU_Nt3FtVll-106" target="tC6INBS62KU_Nt3FtVll-108">
          <mxGeometry width="50" height="50" relative="1" as="geometry">
            <mxPoint x="447" y="480" as="sourcePoint" />
            <mxPoint x="521" y="490" as="targetPoint" />
            <Array as="points" />
          </mxGeometry>
        </mxCell>
        <mxCell id="tKP7OsU-ehgEjlemJdrn-10" value="" style="rounded=0;whiteSpace=wrap;html=1;fillColor=none;strokeColor=light-dark(#000000,#000000);strokeWidth=3;" vertex="1" parent="1">
          <mxGeometry x="760.75" y="120" width="199.25" height="140" as="geometry" />
        </mxCell>
        <mxCell id="tKP7OsU-ehgEjlemJdrn-11" value="&lt;div align=&quot;left&quot;&gt;&lt;span style=&quot;color: light-dark(rgb(0, 0, 0), rgb(0, 0, 0));&quot;&gt;Legend:&lt;/span&gt;&lt;/div&gt;&lt;div align=&quot;left&quot;&gt;&lt;span style=&quot;color: light-dark(rgb(0, 0, 0), rgb(0, 0, 0));&quot;&gt;&lt;br&gt;&lt;/span&gt;&lt;/div&gt;&lt;div align=&quot;left&quot;&gt;&lt;span style=&quot;color: light-dark(rgb(0, 0, 0), rgb(0, 0, 0));&quot;&gt;&lt;span style=&quot;white-space: pre;&quot;&gt;&quot;(arg)&quot;&lt;/span&gt;&lt;span style=&quot;white-space: pre;&quot;&gt;&#x9;&lt;span style=&quot;white-space: pre;&quot;&gt;&#x9;&lt;/span&gt;&lt;/span&gt;= pkg name&lt;/span&gt;&lt;/div&gt;&lt;div align=&quot;left&quot;&gt;&lt;span style=&quot;color: light-dark(rgb(0, 0, 0), rgb(0, 0, 0));&quot;&gt;&lt;br&gt;&lt;/span&gt;&lt;/div&gt;&lt;div align=&quot;left&quot;&gt;&lt;span style=&quot;color: light-dark(rgb(0, 0, 0), rgb(0, 0, 0));&quot;&gt;&lt;span style=&quot;white-space: pre;&quot;&gt;&#x9;&lt;/span&gt;&lt;span style=&quot;white-space: pre;&quot;&gt;&#x9;&lt;span style=&quot;white-space: pre;&quot;&gt;&#x9;&lt;/span&gt;&lt;/span&gt;= launch file&lt;/span&gt;&lt;/div&gt;&lt;div align=&quot;left&quot;&gt;&lt;span style=&quot;color: light-dark(rgb(0, 0, 0), rgb(0, 0, 0));&quot;&gt;&lt;br&gt;&lt;/span&gt;&lt;/div&gt;&lt;div align=&quot;left&quot;&gt;&lt;span style=&quot;color: light-dark(rgb(0, 0, 0), rgb(0, 0, 0));&quot;&gt;&lt;span style=&quot;white-space: pre;&quot;&gt;&#x9;&lt;/span&gt;&lt;span style=&quot;white-space: pre;&quot;&gt;&#x9;&lt;/span&gt;&lt;span style=&quot;white-space: pre;&quot;&gt;&#x9;&lt;/span&gt;= node&lt;/span&gt;&lt;/div&gt;&lt;div align=&quot;left&quot;&gt;&lt;span style=&quot;color: light-dark(rgb(0, 0, 0), rgb(0, 0, 0));&quot;&gt;&lt;br&gt;&lt;/span&gt;&lt;/div&gt;&lt;div align=&quot;left&quot;&gt;&lt;span style=&quot;color: light-dark(rgb(0, 0, 0), rgb(0, 0, 0));&quot;&gt;&lt;span style=&quot;white-space: pre;&quot;&gt;&#x9;&lt;/span&gt;&lt;span style=&quot;white-space: pre;&quot;&gt;&#x9;&lt;/span&gt;&lt;span style=&quot;white-space: pre;&quot;&gt;&#x9;&lt;/span&gt;= semi dependant&lt;/span&gt;&lt;/div&gt;" style="text;html=1;whiteSpace=wrap;strokeColor=none;fillColor=none;align=left;verticalAlign=middle;rounded=0;" vertex="1" parent="1">
          <mxGeometry x="769" y="154" width="211" height="70" as="geometry" />
        </mxCell>
        <mxCell id="tKP7OsU-ehgEjlemJdrn-12" value="" style="rounded=1;whiteSpace=wrap;html=1;fillColor=none;strokeColor=light-dark(#000000,#000000);strokeWidth=2;" vertex="1" parent="1">
          <mxGeometry x="771.5" y="182.5" width="49.25" height="15" as="geometry" />
        </mxCell>
        <mxCell id="tKP7OsU-ehgEjlemJdrn-13" value="" style="rhombus;whiteSpace=wrap;html=1;fillColor=none;strokeColor=light-dark(#000000,#000000);strokeWidth=2;" vertex="1" parent="1">
          <mxGeometry x="769" y="206" width="55" height="25" as="geometry" />
        </mxCell>
        <mxCell id="tKP7OsU-ehgEjlemJdrn-14" value="" style="endArrow=none;dashed=1;html=1;rounded=0;strokeColor=light-dark(#000000,#000000);entryX=0.759;entryY=0.411;entryDx=0;entryDy=0;entryPerimeter=0;" edge="1" parent="1">
          <mxGeometry width="50" height="50" relative="1" as="geometry">
            <mxPoint x="780.83" y="249.43" as="sourcePoint" />
            <mxPoint x="812.1600000000002" y="249.58999999999997" as="targetPoint" />
          </mxGeometry>
        </mxCell>
      </root>
    </mxGraphModel>
  </diagram>
</mxfile>
